<?xml version="1.0" encoding="utf-8"?>
<!-- Generator: Adobe Illustrator 26.1.0, SVG Export Plug-In . SVG Version: 6.00 Build 0)  -->
<svg version="1.1" id="Layer_1" xmlns="http://www.w3.org/2000/svg" xmlns:xlink="http://www.w3.org/1999/xlink" x="0px" y="0px"
	 viewBox="0 0 1080 1080" style="enable-background:new 0 0 1080 1080;" xml:space="preserve">
<style type="text/css">
	.st0{fill:#005665;}
</style>
<g>
	<path class="st0" d="M704.41,434.75c-6.82,8.8-15.92,14.95-24.99,21.04c-18.99,12.75-39.96,21.66-60.73,30.96
		c-18.06,8.09-36.01,16.36-51.81,28.54c-20.71,15.98-31.35,37.16-33.35,63.14c-3.06,39.73,15.76,67.35,47.89,87.69
		c27.17,17.21,57.41,26.46,88.5,33.32c17.83,3.94,35.89,6.56,54.71,8.33c-3.74,2.24-7.57,2.06-11.07,2.56
		c-19.46,2.78-39.06,3.99-58.7,3.04c-36.1-1.75-70.3-9.79-99.99-31.86c-7.74-5.75-14.53-12.49-21.08-19.79
		c1.16,21.61,9.06,41.3,16.53,61.15c-18.4-19.15-33.67-40.3-43.63-65c-7.75-19.23-11.45-39.23-9.85-59.92
		c2.01-25.9,11.36-49.31,25.76-70.78c13.95-20.8,31.66-37.98,51.11-53.6c27.2-21.84,45.36-49.49,52.64-83.94
		c6.29,34.03-2.89,63.27-28.39,87.98c5.15,0.48,9.09-1.25,13.05-2.5c30.2-9.53,58.42-23.64,86.66-37.71
		c2.16-1.07,4.05-3.01,6.79-2.63L704.41,434.75z"/>
	<path class="st0" d="M508.97,396.95c-4.91,16.11-7.56,32.43-6.36,49.24c1.48,20.81,9.17,38.72,25.42,52.29
		c3.25,2.72,3.22,4.31,0.52,7.33c-6.98,7.81-12.72,16.58-18.46,25.7c-27.92-39.01-65.26-61.2-113.06-65.23
		c16.52-2.2,32.93-1.88,49.3,0.48c16.46,2.37,32.11,7.02,46.71,18.54C485.72,452.55,488.11,422.91,508.97,396.95z"/>
	<path class="st0" d="M492.96,642.85c4.24,15.01,9.69,28.14,16.92,40.5c1.18,2.01,0.6,3.34-0.74,4.85
		c-9.74,10.89-19.57,21.66-32.14,29.46c-0.69,0.42-1.41,0.78-2.1,1.21c-1.02,0.65-2.23,1.31-3.02,0.04
		c-0.64-1.02,0.57-1.78,1.24-2.44c5.38-5.27,9.98-11.14,13.83-17.6c2.7-4.54,5.33-9.14,6.03-15.63
		c-35.33,32.09-75.53,38.62-119.63,27.03c9.5-1.57,19.17-1.96,28.7-3.7c24.93-4.55,48.06-13.07,67.22-30.36
		c8.48-7.65,15.3-16.59,20.34-26.86C490.48,647.59,491.41,645.85,492.96,642.85z"/>
	<path class="st0" d="M570.85,438.79c-0.29,13.68-11.49,24.65-25.05,24.52c-13.77-0.13-25.09-11.6-24.93-25.27
		c0.16-13.71,11.76-25,25.43-24.77C560.16,413.51,571.14,424.93,570.85,438.79z"/>
	<path class="st0" d="M236.3,813.13c5.31-1.53,6.12-5.57,6.12-10.2c-0.02-15.81,0-31.61-0.01-47.42c0-4.48-0.86-8.42-6.57-9.26
		c14.58-0.67,29-1.82,43.19,0.57c17,2.87,26.78,16.37,26.05,34.26c-0.69,17.12-11.56,29.04-28.42,31.38
		c-6.8,0.94-13.62,0.61-20.43,0.65C249.59,813.16,242.95,813.13,236.3,813.13z M254.13,779.44c0,8.63,0.1,17.27-0.06,25.9
		c-0.05,2.95,0.71,4.25,3.88,4.04c3.64-0.24,7.3,0,10.95-0.1c9.39-0.26,16.01-4.85,19.99-13.23c3.85-8.11,4.1-16.78,2.56-25.35
		c-2.55-14.2-11.32-21.18-25.63-21.2c-2.32,0-4.67,0.21-6.97-0.05c-3.63-0.41-4.96,0.72-4.83,4.6
		C254.34,762.5,254.13,770.97,254.13,779.44z"/>
	<path class="st0" d="M631.04,755.49c7.31,0,14.62,0,21.93,0c-5.77,1.09-5.83,5.37-5.77,9.9c0.11,8.15,0.03,16.3,0.03,24.45
		c0,7.94,0,15.89,0,24.01c-1.31,0.01-2.04-1.19-2.96-2.02c-12.95-11.71-25.88-23.45-38.84-35.15c-0.95-0.86-1.89-2.49-3.17-2.06
		c-1.81,0.61-0.92,2.6-0.93,3.96c-0.08,8.32-0.06,16.63-0.03,24.95c0.02,6.4,0.3,6.8,6.45,9.41c-7.77,0-14.96,0-22.14,0
		c5.35-1.11,5.23-5.2,5.22-9.26c-0.02-16.28-0.01-32.56-0.01-49.03c1.41-0.64,2.02,0.96,2.9,1.74
		c12.87,11.56,25.69,23.16,38.56,34.72c1.06,0.95,2.03,2.8,3.54,2.28c1.72-0.6,0.88-2.62,0.9-4c0.08-8.48-0.02-16.97,0.06-25.45
		C636.84,759.68,635.84,756.38,631.04,755.49z"/>
	<path class="st0" d="M443.6,764.54c-4.23-11.36-12.43-16.66-24.56-16.23c-10.38,0.37-18.74,6.67-22,17.24
		c-2.92,9.46-2.79,19.08,0.46,28.45c4.01,11.54,12.18,16.75,24.95,16.39c10.57-0.3,17.63-6.04,21.13-17.26
		c0.69-2.2,1.17-4.47,1.77-6.8c3.6,8.82,1.32,17.09-6.07,22.39c-12.66,9.07-35.46,7.05-47.31-4.19
		c-11.3-10.71-13.35-31.61-4.36-45.13c6.06-9.12,15.07-13.3,25.56-14.61c9.06-1.13,17.88-0.04,26.42,3.44
		c2.89,1.18,4.24,2.75,4.06,5.9C443.46,757.61,443.6,761.08,443.6,764.54z"/>
	<path class="st0" d="M651.8,324.32c-6.89,7.1-11.73,15.76-17.52,23.95c-4.43-9.84-0.17-25.57,8.94-33.17
		c7.25-6.05,15.95-9.45,24.63-12.82c1.67-0.65,2.96-0.7,2.97,1.66c0.07,14.73-1.35,28.96-13.15,39.76c-4.92,4.5-10.76,7-17.29,8.24
		c-2.92,0.55-3.09,0.2-2.04-2.57c2.86-7.53,8.31-13.43,12.18-20.31c0.39-0.7,0.8-1.39,1.22-2.07c0.89-1.46,1.94-2.8,2.99-4.15
		c0.63-0.81,1.07-1.72,1.76-2.75c0.15-0.23,0.2-0.29,0.37-0.77c-0.09,0.23-0.46,0.43-0.66,0.58c-1.24,0.97-2.02,1.61-2.75,2.52
		C652.93,323.09,652.38,323.72,651.8,324.32z"/>
	<path class="st0" d="M551.48,341.02c-1.39-10.68-1.12-21.14-0.37-31.69c-3.41,10.01-2.84,20.6-4.65,31.81
		c-7.22-9.62-11.88-19.07-9.01-30.55c2.87-11.5,10.69-19.94,18.18-28.77C572.62,306.95,568.79,330.86,551.48,341.02z"/>
	<path class="st0" d="M701.37,484.76c-4.92-5.91-11.88-8.76-18.45-12.14c-3.15-1.62-6.51-2.81-9.75-4.25
		c-1.07-0.48-2.26-1.19-2.14-2.48c0.15-1.6,1.8-1.12,2.81-1.39c14.78-3.88,26.92,0.33,36.09,12.5c4.01,5.33,7.31,11.1,10.39,17.01
		c0.79,1.51,1.22,2.79-1.15,3.12c-16.18,2.27-31.63,1.69-43.91-11.24c-3.15-3.32-5.21-7.29-6.7-11.56
		c-0.34-0.97-1.38-2.22-0.27-3.19c0.96-0.84,2.12-0.14,3.26,0.22c9.06,2.85,17.51,7.02,25.83,11.52c1.29,0.7,2.69,1.21,4.04,1.8
		c0.07,0.14,0.22,0.2,0.32,0.31c0.05,0.06,0.1,0.07,0.22,0.14C701.77,485.01,701.57,484.88,701.37,484.76z"/>
	<path class="st0" d="M743.08,464.89c-6.3-4.09-13.19-6.62-20.39-8.28c-3.84-0.89-8.08-0.52-11.01-3.92
		c2.99-2.51,6.71-3.27,10.32-4.21c10.54-2.73,20.03-0.74,28.34,6.48c5.67,4.93,10.53,10.59,15.11,16.51
		c0.82,1.06,2.53,2.36-0.19,3.32c-14.91,5.24-29.74,7.39-43.92-1.99c-5.33-3.53-9.33-8.36-11.74-15.08
		C721.38,458.63,732.2,461.69,743.08,464.89z"/>
	<path class="st0" d="M704.32,397.71c-6.96,7.78-13.01,15.76-18.96,24.06c-1.02,1.42-1.99,2.87-3.16,4.56
		c-3.55-16.73,1.24-29.24,14.67-37.32c5.85-3.52,12.09-6.22,18.45-8.7c2.75-1.07,4.05-1.24,4,2.55
		c-0.14,11.44-1.25,22.56-7.87,32.39c-5.3,7.87-12.78,12.43-21.96,14.22c-4.47,0.87-3.06-1.9-2.13-4.08
		c3.53-8.28,9.61-14.96,14.23-22.56c1-1.65,3.76-5.02,3.32-5.75C704.76,397.34,704.52,397.49,704.32,397.71z"/>
	<path class="st0" d="M656.05,512.2c-9.6-9.6-21.61-12.6-31.87-19.13c9.67-5.71,25.86-3.19,34.18,4.93
		c6.64,6.49,11.07,14.51,15.34,22.62c0.74,1.41,1.48,2.81-1.02,3.25c-15.96,2.8-37.86,1.18-47.99-16.88
		c-0.97-1.73-1.61-3.65-2.53-5.42c-0.56-1.09-2.42-2.02-1.17-3.3c1.03-1.05,2.74-0.61,4.24-0.1c8.81,2.99,17.21,6.87,25.34,11.36
		C651.97,510.31,653.43,510.94,656.05,512.2z"/>
	<path class="st0" d="M743.81,416.61c-11.5,1.58-21.5,7.03-31.85,11.88c0.1-8.13,12.14-22.14,23.99-23.72
		c9.57-1.28,18.89,0.19,28.23,1.89c1.87,0.34,2.84,0.93,1.69,2.9c-8.19,14.12-18.03,26.14-35.94,27.52
		c-4.69,0.36-9.29-0.37-13.68-2.14c-1.06-0.43-2.5-0.63-2.67-1.9c-0.18-1.33,1.22-1.62,2.16-2.29c7.29-5.22,15.72-8.18,23.67-12.07
		C740.85,417.96,742.33,417.3,743.81,416.61z"/>
	<path class="st0" d="M510.85,364.61c-1.59-13.13,0-25.67,1.27-38.26c-4.57,12-4.66,24.74-5.95,37.4
		c-9.65-8.09-12.92-24.22-7.2-36.02c4.01-8.29,9.7-15.44,15.89-22.26C530.37,326.87,530.4,352.47,510.85,364.61z"/>
	<path class="st0" d="M699.12,351.94c-9.11,8.73-15.23,19.2-22.52,29.34c-3.89-13.1,0.87-27.37,11.2-34.83
		c6.79-4.91,14.46-8.13,22.24-11.07c1.52-0.58,3.32-1.5,3.37,1.51c0.21,12.12-0.74,24.02-8.2,34.22
		c-4.94,6.77-11.51,11.46-19.85,13.28c-1.52,0.33-3.44,1.35-4.58-0.33c-0.95-1.4,0.46-2.84,1.12-4.08
		c4.43-8.28,9.8-15.96,15.15-23.65C697.87,355.17,699.17,354.22,699.12,351.94z"/>
	<path class="st0" d="M388.54,338.15c5,9.91,12.08,18.41,18.77,27.38c-12.47,0.55-25.61-9.07-29.47-21.51
		c-2.49-8.01-3.09-16.31-3.4-24.64c-0.1-2.55,0.85-2.8,2.98-2.09c10.83,3.61,21.16,7.98,28.51,17.34
		c6.01,7.64,7.98,16.29,6.75,25.78c-0.48,3.69-2.28,2.48-3.94,0.89c-6.16-5.87-10.9-12.93-16.23-19.49
		C391.39,340.42,390.6,338.71,388.54,338.15z"/>
	<path class="st0" d="M379.84,382.74c3.46,5.98,9.7,8.73,14.89,12.65c4.19,3.17,8.71,5.92,13.33,9.02
		c-10.22,4.65-26.78-0.12-34.04-9.55c-5.43-7.05-8.86-15.18-12.2-23.34c-0.68-1.65-0.83-2.92,1.52-2.94
		c15.63-0.18,30.75,1.18,41.59,14.57c3.95,4.88,6.21,10.49,6.87,17.59c-12-4.4-21.82-11.52-32.02-17.92
		c-0.32-0.36-0.64-0.72-0.96-1.07c0,0.01-0.15-0.02-0.15-0.02l0.21,0.03C378.89,382.38,379.12,382.79,379.84,382.74z"/>
	<path class="st0" d="M441.24,323.14c1.04,12.4,6.35,23.48,10.48,35.09c-10.96-2.49-21.24-14.78-21.97-26.22
		c-0.64-10.08,1.49-19.79,4.16-29.48c16.66,8.74,29.21,24.11,27.63,40.96c-0.33,3.51-1.17,6.87-2.52,10.11
		c-0.49,1.18-0.67,2.96-2.22,2.98c-1.59,0.03-2.43-1.52-3.03-2.87c-3.95-8.93-8.22-17.74-11.22-27.06
		C442.17,325.46,441.68,324.31,441.24,323.14z"/>
	<path class="st0" d="M452.9,408.49c-13.84-0.48-25.91-9.46-29.74-21.86c-2.37-7.69-2.89-15.68-3.46-23.65
		c-0.18-2.58,0.4-3.72,3.35-2.79c10.95,3.44,21.19,8.04,28.41,17.45c5.5,7.17,7.76,15.34,6.68,24.34c-0.15,1.2,0.17,2.98-1.34,3.46
		c-1.48,0.47-2.42-1.15-3.16-2.01c-5.24-6.02-10.26-12.22-15.42-18.31c-1.07-1.26-1.64-3.31-4.39-3.25
		C439.5,391.46,446.14,399.81,452.9,408.49z"/>
	<path class="st0" d="M419.57,484.88c-9.4,6.98-19.29,11.02-28.96,15.52c10.86-0.55,19.63-7.04,29.57-10.83
		c-1.04,10.83-13.69,21.92-25.85,22.96c-7.86,0.67-15.58-0.77-23.25-2.23c-1.89-0.36-4.28-1.02-2.55-3.94
		c7.33-12.4,16.41-22.66,31.62-25.11C406.57,480.2,412.62,481.55,419.57,484.88z"/>
	<path class="st0" d="M779.26,772.38c-7.42-12.48-13.89-16.02-26.42-14.19c-7.07,1.03-11.96,4.95-14.72,11.31
		c-4.03,9.28-4.03,18.84-0.4,28.2c3.54,9.14,10.85,13.28,21.44,12.84c10.37-0.44,16.55-5.06,19.58-14.68
		c0.59-1.87,1.09-3.76,1.75-6.07c2.49,13.81,1.65,17.82-12.75,22.83c-10,3.48-20.13,2.11-29.64-2.35
		c-10.4-4.89-15.87-15.45-15.06-28.11c0.81-12.77,7.28-21.92,18.74-25.65c10.77-3.5,21.58-2.98,32.35,0.51
		c3.38,1.1,4.84,2.9,4.7,6.45C778.72,766.43,779.1,769.41,779.26,772.38z"/>
	<path class="st0" d="M433.57,510.98c11.7-1.18,21.66-7.17,32.47-11.57c-1.34,11.32-14.2,22.18-26.98,22.93
		c-8.02,0.47-15.91-1.04-23.74-2.64c-1.46-0.3-2.43-0.46-1.71-2.52c4.92-14.08,23.44-26.99,38.09-26.43c3.54,0.13,6.91,1,10.18,2.25
		c0.98,0.37,2.59,0.5,2.47,2.01c-0.08,0.94-1.27,1.28-2.08,1.85c-7.88,5.56-16.81,8.97-25.55,12.79
		C435.68,510.09,434.62,510.53,433.57,510.98z"/>
	<path class="st0" d="M366.8,404.23c-6.39,1.91-11.24-1.74-16.59-3c-5.24-1.24-10.04-4.12-15.61-4.14
		c9.61,5.19,19.86,8.76,30.07,12.2c-9.22,6.47-24.74,6.24-34-0.79c-6.97-5.29-12.2-12.22-17.3-19.24c-0.83-1.14-1.47-1.98,0.4-3.03
		c12.51-7.08,36.18-3.67,46.26,6.9C362.99,396.23,365.54,399.7,366.8,404.23z"/>
	<path class="st0" d="M367,443.61c-12.82,0.05-23.25-6.59-34.79-9.17c10.1,6.29,21.35,9.85,32.71,13.51
		c-9.95,6.69-24.9,6.46-34.17-0.58c-6.96-5.28-12.21-12.17-17.28-19.18c-0.77-1.06-1.7-1.99,0.2-3.13
		c13.25-8.01,38.97-3.09,48.5,9.37C364.17,437.04,365.93,439.79,367,443.61z"/>
	<path class="st0" d="M391.7,435.81c9.99,6.43,21.35,9.54,32.34,13.44c-6.99,6-23.73,6.66-32.13,0.59
		c-8.35-6.03-14.45-14.02-20.25-22.42c22.52-10.57,49.07-2.18,54.47,16.92c-7.43,1.76-13.6-2.62-20.34-4.2
		c-4.81-1.13-9.09-4.04-14.17-4.26c-0.09-0.22-0.19-0.43-0.29-0.65c0,0.1-0.05,0.23,0,0.28
		C391.42,435.63,391.57,435.71,391.7,435.81z"/>
	<path class="st0" d="M460.55,456.64c-10.43-0.23-18.03-8.31-17.72-18.83c0.29-9.71,8.47-17.39,18.41-17.28
		c10.03,0.12,17.93,8.32,17.74,18.41C478.79,449.05,470.64,456.86,460.55,456.64z"/>
	<path class="st0" d="M472.87,299.3c-1.32,12.73,2.76,24.28,4.41,36.15c-10.66-4.44-18.33-18.68-16.35-30.7
		c1.3-7.9,4.18-15.35,7.39-22.67c1.01-2.3,1.81-2.8,3.79-0.86c7.8,7.63,14.76,15.73,17.21,26.8c1.98,8.93,0.23,17.11-4.59,24.76
		c-1.86,2.95-3.3,3.03-4.25-0.6c-1.4-5.37-2.95-10.7-4.2-16.09C475.05,310.77,474.1,305.4,472.87,299.3z"/>
	<path class="st0" d="M474.9,346.81c21.15,17,26.38,39.59,12.56,56.17c-5.97-11.45-6.32-24-9.7-36.56
		c-0.61,12.98,2.65,24.65,4.88,36.62c-10.53-5.03-18.03-17.88-16.73-29.01C467.04,364.41,470.52,355.5,474.9,346.81z"/>
	<path class="st0" d="M351.6,470.43c12.81,3.5,24.76,0.85,37.08,0.07c-6.61,10.09-19.77,15.6-30.76,12.99
		c-8.66-2.06-16.37-6.38-23.95-10.91c-1.19-0.71-2.12-1.24-0.77-2.98c10.91-14.08,35.9-18.67,50.34-9.09
		c1.9,1.26,5.05,2.5,4.75,4.62c-0.36,2.54-3.86,1.83-5.96,2.26C372.54,469.38,362.56,469.84,351.6,470.43z"/>
	<path class="st0" d="M634.04,433.32c-0.06-10.28,7.58-18.05,17.8-18.11c9.98-0.05,18.18,7.97,18.26,17.87
		c0.08,9.82-8.13,18.12-18.01,18.2C642.09,451.38,634.1,443.42,634.04,433.32z"/>
	<path class="st0" d="M807.91,795.38c3.25,12.14,8.24,16.1,18.11,15.09c4.35-0.44,7.68-2.39,8.92-6.74
		c1.22-4.28-0.82-7.37-4.28-9.74c-5.76-3.95-11.52-7.89-17.24-11.88c-5.87-4.1-7.97-9.74-6.24-16.48
		c1.59-6.17,6.48-10.65,13.16-11.14c5.11-0.38,10.28,0.09,15.43,0.14c2.88,0.03,4.25,1.05,3.62,4.24c-0.47,2.36-0.39,4.82-0.61,8.08
		c-3.76-8.09-8.06-10.28-15.77-8.75c-3.7,0.73-6.59,2.56-7.47,6.4c-0.82,3.63,1.43,5.97,4.15,7.84c5.61,3.87,11.18,7.79,16.92,11.46
		c5.45,3.49,8.08,8.34,7.45,14.69c-0.66,6.73-4.47,11.35-10.7,13.82c-8.57,3.41-16.96,1.96-25.24-1.28
		c-2.03-0.79-2.63-2.41-2.6-4.37C805.59,803.12,805.99,799.53,807.91,795.38z"/>
	<path class="st0" d="M574.32,404.4c7.94-7.53,16.77-12.75,24.74-19.16c-9.67,3.19-17.4,9.79-26.08,15.04
		c1.63-14.44,11.6-24.93,25.97-27.09c6.41-0.96,12.91-1.27,19.41-0.82c1.44,0.1,3.24-0.08,2.28,2.46
		c-4.06,10.76-9.38,20.64-19.57,26.87C592.97,406.66,584.29,407.6,574.32,404.4z"/>
	<path class="st0" d="M591.95,334.41c-7.13,6.46-11.35,15.22-17.5,22.79c-3.76-9.1-0.19-22.96,7.63-29.87
		c6.97-6.16,15.54-9.46,24.07-12.78c1.65-0.64,2.54-0.45,2.57,1.49c0.23,13.92-1.2,27.27-12.33,37.47
		c-4.62,4.23-10.19,6.77-18.18,7.76c0.78-5.05,3.04-9.23,5.72-13.1c3.01-4.35,6.16-8.59,8.67-13.25c1.37-0.84,2.14-2.04,2.87-4.08
		C593.53,332,592.6,333.08,591.95,334.41z"/>
	<path class="st0" d="M471.4,812.21c4.98-0.58,5.86-3.93,5.86-7.89c0-13.47,0-26.93-0.01-40.4c0-3.93-0.82-7.32-5.54-8.26
		c7.33,0,14.66,0,21.99,0c-4.71,1.34-5.19,4.89-5.13,9.18c0.18,13.46,0.16,26.93,0,40.39c-0.04,3.22,0.83,4.57,4.16,4.18
		c1.97-0.23,4-0.18,5.98-0.02c9.02,0.75,14.68-3.79,18.49-11.46c-1.45,3.75-1.84,7.74-2.46,11.67c-0.43,2.72-1.53,3.91-4.55,3.87
		c-12.77-0.17-25.55-0.07-38.33-0.07C471.71,813,471.55,812.61,471.4,812.21z"/>
	<path class="st0" d="M590.48,283.7c-0.87,0.94-1.61,1.81-2.56,2.71c-4.35,4.09-6.83,9.81-10.5,14.44c-1.09,1.38-2.01,2.9-3.16,4.57
		c-3.44-11.69,0.51-23.55,9.94-30.23c5.73-4.06,12.18-6.74,18.7-9.22c1.36-0.52,3.06-1.37,3.11,1.27
		c0.26,13.34-1.45,26.01-12.61,35.26c-2.51,2.08-5.45,3.58-8.55,4.54c-5.93,1.84-8.06,2.13-6.54-1.33c2.6-5.91,6.44-11.08,9.8-16.53
		c0.46-0.75,0.9-1.51,1.32-2.28c0.5-0.9,1.12-1.72,1.72-2.56c0.55-0.76,0.88-1.95,0.82-2.09
		C591.36,282.76,591.05,283.09,590.48,283.7z"/>
	<path class="st0" d="M621.71,309.31c-0.7,0.86-0.9,2.51-2.25,2.29c-1.78-0.29-1.29-2.12-1.35-3.29
		c-0.58-10.73,2.78-19.58,12.39-25.36c4.27-2.57,8.87-4.47,13.36-6.62c3.18-1.52,4.15,0.09,4.93,2.48
		c4.71,14.51-8.35,34.92-23.66,37.16c-0.87,0.13-1.54,0.45-2.04-0.42c-0.69-1.18-0.11-2.16,0.46-3.23
		c3.14-5.84,6.56-11.5,10.33-16.95c0.72-1.04,3.5-4.9,3.74-5.31c0.07-0.12,0.25-0.54,0.26-0.62c-0.21,0-0.96,0.63-1.1,0.8
		C636.23,290.88,626.37,303.57,621.71,309.31z"/>
	<path class="st0" d="M639.47,391.94c3.55-8.45,8.88-14.99,12.58-22.51c-6.02,5.44-9.85,12.63-14.85,19.02
		c-3.51-9.75,0.16-21.69,8.54-27.88c5.52-4.08,11.79-6.74,18.15-9.21c1.96-0.76,3.52-1.13,3.59,1.9c0.18,9.11-0.85,17.94-5.84,25.83
		C656.7,386.89,649.52,391.04,639.47,391.94z"/>
	<path class="st0" d="M529.59,374.61c-5.98,4.6-9.97,10.69-14.47,16.41c-5.31-15.75,8.14-31.57,30.09-35.51
		c2.7,17.97-5.84,32.6-22.68,38.84c-1.47,0.54-3.04,1-4.06-0.41c-0.95-1.31,0.05-2.9,0.71-3.93c2.57-4.03,5.44-7.87,8.16-11.8
		C528.14,377.05,528.84,375.81,529.59,374.61z"/>
	<path class="st0" d="M676.63,755.56c7.75,0,15.5,0,23.26,0c-5.69,1.16-5.74,5.44-5.71,9.97c0.07,12.63,0.07,25.25-0.07,37.88
		c-0.05,4.57,0.68,8.3,6.05,9.46c-7.81,0-15.61,0-23.42,0c5.45-1.19,6.01-5.08,5.96-9.74c-0.16-12.62-0.11-25.25-0.03-37.88
		C682.69,760.67,682.57,756.41,676.63,755.56z"/>
	<path class="st0" d="M561.43,755.59c-5.13,1.08-6.12,4.55-6.05,9.21c0.19,12.96,0.14,25.93,0.02,38.9
		c-0.04,4.51,0.76,8.07,6.08,9.08c-7.61,0-15.22,0-22.82,0c5.27-1.23,5.35-5.38,5.34-9.61c-0.02-12.8,0.03-25.6-0.02-38.4
		c-0.02-6.18-0.67-7.04-6.63-9.17C545.72,755.59,553.57,755.59,561.43,755.59z"/>
	<path class="st0" d="M343.35,787.95c-3.82,0-7.64-0.02-11.46,0.01c-2.01,0.01-3.09-0.84-3.11-2.96c-0.03-2.25,1.24-2.77,3.19-2.76
		c7.81,0.04,15.61,0.03,23.42,0c1.85-0.01,3.34,0.27,3.38,2.58c0.05,2.39-1.26,3.17-3.46,3.14
		C351.32,787.92,347.33,787.95,343.35,787.95z"/>
	<path class="st0" d="M704.45,434.79c0.04-0.23,0.09-0.45,0.13-0.68c0.17,0.09,0.34,0.18,0.51,0.27c-0.23,0.12-0.46,0.25-0.69,0.37
		C704.41,434.75,704.45,434.79,704.45,434.79z"/>
	<path class="st0" d="M379.84,382.74c-0.72,0.05-0.94-0.36-0.95-0.99c0,0-0.07-0.01-0.07-0.01c0.32,0.36,0.64,0.72,0.95,1.08
		C379.77,382.81,379.84,382.74,379.84,382.74z"/>
	<path class="st0" d="M378.88,381.75l-0.21-0.03c0,0,0.15,0.03,0.15,0.02S378.88,381.75,378.88,381.75z"/>
	<path class="st0" d="M391.7,435.81c-0.13-0.1-0.28-0.18-0.38-0.3c-0.05-0.05,0-0.18,0-0.28c0.1,0.22,0.19,0.43,0.29,0.65
		C391.61,435.88,391.7,435.81,391.7,435.81z"/>
</g>
</svg>
